<!--?xml version="1.0" standalone="no"?-->
              <svg id="sw-js-blob-svg" viewBox="0 0 100 100" xmlns="http://www.w3.org/2000/svg" version="1.1">
                    <defs> 
                        <linearGradient id="sw-gradient" x1="0" x2="1" y1="1" y2="0">
                            <stop id="stop1" stop-color="rgba(0, 74, 173, 1)" offset="0%"></stop>
                            <stop id="stop2" stop-color="rgba(88, 124, 197, 1)" offset="100%"></stop>
                        </linearGradient>
                    </defs>
                <path fill="url(#sw-gradient)" d="M21,-34.2C26.3,-33.2,29.2,-25.9,30.2,-19.1C31.2,-12.4,30.2,-6.2,31.6,0.8C33,7.8,36.8,15.6,34.6,20.3C32.4,25,24.3,26.6,17.6,27.9C10.8,29.3,5.4,30.3,-1.1,32.3C-7.6,34.2,-15.3,36.9,-22.1,35.7C-29,34.4,-35,29,-36.8,22.4C-38.5,15.8,-35.9,7.9,-32.8,1.8C-29.7,-4.3,-26,-8.6,-24,-14.8C-22.1,-21,-21.7,-29,-18,-30.9C-14.3,-32.8,-7.1,-28.6,0.3,-29.2C7.8,-29.7,15.6,-35.1,21,-34.2Z" width="100%" height="100%" transform="translate(50 50)" stroke-width="0" style="transition: all 0.3s ease 0s;" stroke="url(#sw-gradient)"></path>
              </svg>