<svg id="sw-js-blob-svg" viewBox="0 0 90 90" xmlns="http://www.w3.org/2000/svg" version="1.1">
    <defs>
        <linearGradient id="sw-gradient" x1="0" x2="1" y1="1" y2="0">
            <stop id="stop1" stop-color="rgba(0, 74, 173, 1)" offset="0%"></stop>
            <stop id="stop2" stop-color="rgba(88, 124, 197, 1)" offset="100%"></stop>
        </linearGradient>
    </defs>
    <path fill="url(#sw-gradient)"
          d="M21,-34.2C26.3,-33.2,29.2,-25.9,30.2,-19.1C31.2,-12.4,30.2,
          -6.2,31.6,0.8C33,7.8,36.8,15.6,34.6,20.3C32.4,25,24.3,26.6,17.6,
          27.9C10.8,29.3,5.4,30.3,-1.1,32.3C-7.6,34.2,-15.3,36.9,-22.1,35.7C-29,
          34.4,-35,29,-36.8,22.4C-38.5,15.8,-35.9,7.9,-32.8,1.8C-29.7,-4.3,-26,-8.6,
          -24,-14.8C-22.1,-21,-21.7,-29,-18,-30.9C-14.3,-32.8,-7.1,-28.6,0.3,-29.2C7.8,
          -29.7,15.6,-35.1,21,-34.2Z" width="100%" height="100%"
          transform="translate(40 40)" stroke-width="0" style="transition: all 2s ease 0s;"
          stroke="url(#sw-gradient)">
        <animate attributeName="d" dur="10s" values="


        M19.1,-31.5C25.4,-29.5,31.5,-25.6,34.8,-20.1C38.1,-14.5,38.6,-7.2,38.5,
        -0.1C38.3,7,37.4,14.1,33.1,17.8C28.7,21.6,20.8,22,14.8,24.3C8.7,26.7,4.3,
        30.8,-0.9,32.4C-6.2,34,-12.4,33.1,-17.1,30C-21.9,26.9,-25.4,21.8,-26.7,16.4C-28.1,
        11.1,-27.5,5.5,-27.9,-0.3C-28.4,-6,-29.9,-12.1,-29.4,-19.1C-29,-26,-26.6,-33.9,
        -21.3,-36.5C-16.1,-39.1,-8,-36.4,-0.8,-35C6.4,-33.6,12.8,-33.5,19.1,-31.5Z;

            M21,-34.2C26.3,-33.2,29.2,-25.9,30.2,-19.1C31.2,-12.4,30.2,
          -6.2,31.6,0.8C33,7.8,36.8,15.6,34.6,20.3C32.4,25,24.3,26.6,17.6,
          27.9C10.8,29.3,5.4,30.3,-1.1,32.3C-7.6,34.2,-15.3,36.9,-22.1,35.7C-29,
          34.4,-35,29,-36.8,22.4C-38.5,15.8,-35.9,7.9,-32.8,1.8C-29.7,-4.3,-26,-8.6,
          -24,-14.8C-22.1,-21,-21.7,-29,-18,-30.9C-14.3,-32.8,-7.1,-28.6,0.3,-29.2C7.8,
          -29.7,15.6,-35.1,21,-34.2Z


" repeatCount="indefinite"/>
    </path>
</svg>
